D:\PredSimResults\Vitruvian_Man\IG_v16ms_ATx70.mot
version=1
nRows=6
nColumns=31
inDegrees=yes
endheader
                time	         pelvis_tilt	           pelvis_tx	           pelvis_ty	       hip_flexion_r	        knee_angle_r	       ankle_angle_r	       hip_flexion_l	        knee_angle_l	       ankle_angle_l	    lumbar_extension	          arm_flex_r	          arm_flex_l	hamstrings_r/activation	bifemsh_r/activation	glut_max_r/activation	iliopsoas_r/activation	rect_fem_r/activation	  vasti_r/activation	gastroc_r/activation	 soleus_r/activation	tib_ant_r/activation	hamstrings_l/activation	bifemsh_l/activation	glut_max_l/activation	iliopsoas_l/activation	rect_fem_l/activation	  vasti_l/activation	gastroc_l/activation	 soleus_l/activation	tib_ant_l/activation	
          0.91930748	         -9.09719491	          1.45201655	          0.97517640	         29.11066999	          1.38237211	          2.12664379	         -8.33397200	        -10.05649928	         -2.88789879	         -4.30109908	          3.84388693	          3.88136772	          0.50787869	          0.05000294	          0.12159618	          0.05000053	          0.05766332	          0.05000706	          0.05970835	          0.05814296	          0.48499103	          0.05000042	          0.15757287	          0.05000017	          0.50496649	          0.05000027	          0.05000012	          0.30880805	          0.23483515	          0.05000007	
          0.92850056	         -9.51012910	          1.47116568	          0.97314467	         28.33283550	          1.78216329	          1.03971556	         -7.37868710	        -12.79803456	         -4.25888036	         -3.20752225	          3.09077720	          3.12878478	          0.45217353	          0.05000374	          0.16002408	          0.05000020	          0.05000235	          0.05001099	          0.05177602	          0.05041820	          0.64392529	          0.05296799	          0.13663771	          0.05000015	          0.43787607	          0.05000013	          0.05000007	          0.26777946	          0.20363468	          0.05000005	
          0.93769363	         -9.91395460	          1.49023650	          0.97138755	         27.53199438	          2.11302450	         -0.36887741	         -6.15768424	        -15.89917534	         -6.17647143	         -2.11713802	          2.33227272	          2.37064110	          0.39278640	          0.10461563	          0.18278791	          0.05000017	          0.05000031	          0.05000185	          0.05000012	          0.05000003	          0.77922932	          0.05000023	          0.11848399	          0.05000021	          0.37969934	          0.05000383	          0.05000007	          0.23220197	          0.17657953	          0.05000005	
          0.94688671	        -10.31087260	          1.50881467	          0.97022865	         26.73856115	          2.60613363	         -2.60030640	         -4.65980208	        -19.26790794	         -8.82432653	         -1.08596822	          1.63016604	          1.66870630	          0.35795832	          0.09071735	          0.21635082	          0.05000010	          0.05000032	          0.05000447	          0.05000016	          0.05000006	          0.86311947	          0.05000060	          0.10274222	          0.05000024	          0.32925205	          0.14107054	          0.05000010	          0.20135135	          0.15311897	          0.30272255	
          0.95607978	        -10.69569987	          1.52668699	          0.96969875	         26.02930859	          2.96038584	         -4.57393572	         -2.97296687	        -22.73962954	        -11.59079813	         -0.14842710	          1.01756782	          1.05609148	          0.31734744	          0.07866596	          0.22479002	          0.05000012	          0.05000036	          0.05000537	          0.05000013	          0.05000005	          0.91513239	          0.05000019	          0.08909231	          0.05000013	          0.28550724	          0.22355354	          0.05000005	          0.17459961	          0.13277541	          0.26250249	
          0.96527286	        -11.06086759	          1.54382995	          0.96980576	         25.39344908	          3.16496527	         -6.17633644	         -1.21854332	        -26.13587662	        -12.66166597	          0.68190141	          0.50080718	          0.53912641	          0.28546863	          0.06821812	          0.23027063	          0.05000018	          0.05000046	          0.05000410	          0.05000015	          0.05000006	          0.94738101	          0.05000021	          0.07986073	          0.05000008	          0.24757442	          0.30068002	          0.05000004	          0.15140214	          0.11513472	          0.40487329	
